<?xml version="1.0" encoding="iso-8859-1"?>
<!-- Generator: Adobe Illustrator 19.0.0, SVG Export Plug-In . SVG Version: 6.00 Build 0)  -->
<svg version="1.1" id="Capa_1" xmlns="http://www.w3.org/2000/svg" xmlns:xlink="http://www.w3.org/1999/xlink" x="0px" y="0px"
	 viewBox="0 0 512.493 512.493" style="enable-background:new 0 0 512.493 512.493;" xml:space="preserve">
<path style="fill:#FFFFFF;" d="M245.438,427.059c32,10.667,32,32,32,32l0.96,0.96c-60.977,55.609-154.277,55.609-215.253,0
	l0.96-0.96c0,0,0-21.333,32-32c18.215-5.964,36.03-13.09,53.333-21.333v-14.4c-25.564-9.008-42.664-33.162-42.667-60.267v-32
	c0-35.346,28.654-64,64-64s64,28.654,64,64v32c-0.002,27.104-17.103,51.259-42.667,60.267v14.4
	C209.408,413.969,227.222,421.095,245.438,427.059z"/>
<path style="fill:#87D2F3;" d="M400.211,425.033c12.949-26.404,44.851-37.31,71.255-24.361
	c26.404,12.949,37.31,44.851,24.361,71.255s-44.851,37.311-71.255,24.361c-18.269-8.96-29.834-27.547-29.801-47.895
	C394.737,440.288,396.6,432.288,400.211,425.033z"/>
<path style="fill:#FFFFFF;" d="M355.731,156.766c-33.343-33.306-33.373-87.336-0.067-120.68C388.97,2.743,443,2.713,476.344,36.019
	s33.373,87.336,0.067,120.68c-15.989,16.007-37.681,25.009-60.306,25.027C393.469,181.727,371.757,172.751,355.731,156.766z"/>
<path style="fill:#87D2F3;" d="M321.491,395.593c-8.913,24.66-23.705,46.774-43.093,64.427l-0.96-0.96c0,0,0-21.333-32-32
	c-18.215-5.964-36.03-13.09-53.333-21.333v-14.4c25.564-9.008,42.664-33.162,42.667-60.267v-32c0-35.346-28.654-64-64-64
	s-64,28.654-64,64v32c0.002,27.104,17.103,51.259,42.667,60.267v14.4c-17.304,8.243-35.118,15.369-53.333,21.333
	c-32,10.667-32,32-32,32l-0.96,0.96c-65.279-59.488-69.974-160.631-10.486-225.91s160.631-69.974,225.91-10.486
	c33.228,30.28,52.176,73.148,52.203,118.103C330.771,360.079,327.633,378.297,321.491,395.593z"/>
<g>
	<path style="fill:#2170A6;" d="M448.104,384.393c-20.949,0.107-40.538,10.391-52.523,27.573l-60.949-22.837
		c4.478-15.404,6.769-31.361,6.805-47.403c0.07-41.567-15.194-81.7-42.869-112.715l57.6-57.6
		c41.479,33.202,102.021,26.492,135.223-14.987s26.492-102.021-14.987-135.223S374.384-5.291,341.181,36.188
		c-28.098,35.103-28.134,84.987-0.085,120.13l-57.6,57.6c-31.021-27.671-71.157-42.93-112.725-42.859
		C76.515,171.002,0.058,247.365,0,341.622s76.306,170.713,170.562,170.771c42.547,0.026,83.569-15.841,115.025-44.491
		c17.874-16.439,32.069-36.472,41.653-58.784l59.275,22.208c-1.577,5.553-2.388,11.294-2.411,17.067c0,35.346,28.654,64,64,64
		s64-28.654,64-64S483.451,384.393,448.104,384.393z M416.104,21.726c41.237,0,74.667,33.429,74.667,74.667
		s-33.429,74.667-74.667,74.667s-74.667-33.429-74.667-74.667C341.485,55.175,374.887,21.773,416.104,21.726z M75.464,456.403
		c1.547-4.576,6.699-13.451,24.011-19.2c18.697-6.102,36.979-13.409,54.731-21.877c3.634-1.816,5.921-5.538,5.899-9.6v-14.4
		c-0.001-4.525-2.857-8.556-7.125-10.059c-21.278-7.53-35.512-27.638-35.541-50.208v-32c0-29.455,23.878-53.333,53.333-53.333
		s53.333,23.878,53.333,53.333v32c-0.03,22.57-14.264,42.678-35.541,50.208c-4.268,1.502-7.124,5.534-7.125,10.059v14.4
		c-0.022,4.062,2.265,7.784,5.899,9.6c17.751,8.475,36.033,15.79,54.731,21.899c17.312,5.781,22.464,14.656,24.011,19.2
		c-55.136,46.21-135.478,46.21-190.613,0L75.464,456.403z M282.099,440.926c-7.87-11.72-19.682-20.228-33.291-23.979
		c-15.648-5.194-31.015-11.201-46.037-17.995v-0.491c26.038-12.351,42.644-38.584,42.667-67.403v-32
		c0-41.237-33.429-74.667-74.667-74.667s-74.667,33.429-74.667,74.667v32c0.023,28.819,16.629,55.052,42.667,67.403v0.491
		c-15.023,6.794-30.389,12.8-46.037,17.995c-13.669,3.758-25.521,12.327-33.376,24.128C4.388,379.654,9.617,285.301,71.038,230.33
		c59.104-52.896,149.258-50.322,205.248,5.86c28.153,27.889,43.938,65.908,43.819,105.536
		C320.246,378.374,306.691,413.754,282.099,440.926z M448.104,491.059c-23.564,0-42.667-19.103-42.667-42.667
		c-0.034-6.484,1.457-12.886,4.352-18.688c10.321-21.184,35.861-29.989,57.044-19.668c21.184,10.321,29.989,35.861,19.668,57.044
		C479.348,481.765,464.438,491.075,448.104,491.059z"/>
	<path style="fill:#2170A6;" d="M416.104,64.393V43.059c-29.441,0.035-53.298,23.893-53.333,53.333h21.333
		C384.104,78.72,398.431,64.393,416.104,64.393z"/>
	<path style="fill:#2170A6;" d="M437.438,437.726h21.333v21.333h-21.333V437.726z"/>
	<path style="fill:#2170A6;" d="M266.771,331.059h21.333v21.333h-21.333V331.059z"/>
	<path style="fill:#2170A6;" d="M42.771,331.059h21.333v21.333H42.771V331.059z"/>
</g>
<g>
</g>
<g>
</g>
<g>
</g>
<g>
</g>
<g>
</g>
<g>
</g>
<g>
</g>
<g>
</g>
<g>
</g>
<g>
</g>
<g>
</g>
<g>
</g>
<g>
</g>
<g>
</g>
<g>
</g>
</svg>
