<?xml version="1.0" encoding="iso-8859-1"?>
<!-- Generator: Adobe Illustrator 19.0.0, SVG Export Plug-In . SVG Version: 6.00 Build 0)  -->
<svg version="1.1" id="Capa_1" xmlns="http://www.w3.org/2000/svg" xmlns:xlink="http://www.w3.org/1999/xlink" x="0px" y="0px"
	 viewBox="0 0 512 512" style="enable-background:new 0 0 512 512;" xml:space="preserve">
<path style="fill:#FFFFFF;" d="M501.333,96v362.667c0,23.564-19.103,42.667-42.667,42.667H53.333
	c-23.564,0-42.667-19.103-42.667-42.667V96H501.333z"/>
<g>
	<path style="fill:#87D2F3;" d="M501.333,53.333V96H10.667V53.333c0-23.564,19.103-42.667,42.667-42.667h405.333
		C482.231,10.667,501.333,29.769,501.333,53.333z"/>
	<circle style="fill:#87D2F3;" cx="256" cy="298.667" r="128"/>
</g>
<g>
	<path style="fill:#2170A6;" d="M458.667,0H53.333C23.893,0.035,0.035,23.893,0,53.333v405.333
		C0.035,488.107,23.893,511.965,53.333,512h405.333c29.441-0.035,53.298-23.893,53.333-53.333V53.333
		C511.965,23.893,488.107,0.035,458.667,0z M490.667,458.667c0,17.673-14.327,32-32,32H53.333c-17.673,0-32-14.327-32-32V53.333
		c0-17.673,14.327-32,32-32h405.333c17.673,0,32,14.327,32,32V458.667z"/>
	<path style="fill:#2170A6;" d="M42.667,85.333h426.667v21.333H42.667V85.333z"/>
	<path style="fill:#2170A6;" d="M53.333,42.667h21.333V64H53.333V42.667z"/>
	<path style="fill:#2170A6;" d="M96,42.667h21.333V64H96V42.667z"/>
	<path style="fill:#2170A6;" d="M437.333,42.667h21.333V64h-21.333V42.667z"/>
	<path style="fill:#2170A6;" d="M256,160c-76.583,0-138.667,62.083-138.667,138.667S179.417,437.333,256,437.333
		s138.667-62.083,138.667-138.667C394.578,222.12,332.547,160.088,256,160z M256,416c-64.801,0-117.333-52.532-117.333-117.333
		S191.199,181.333,256,181.333s117.333,52.532,117.333,117.333C373.257,363.436,320.77,415.924,256,416z"/>
	<path style="fill:#2170A6;" d="M277.333,245.333h-10.667V224h-21.333v21.333h-10.667c-11.782,0-21.333,9.551-21.333,21.333V288
		c0,11.782,9.551,21.333,21.333,21.333h42.667v21.333h-42.667V320h-21.333v10.667c0,11.782,9.551,21.333,21.333,21.333h10.667
		v21.333h21.333V352h10.667c11.782,0,21.333-9.551,21.333-21.333v-21.333c0-11.782-9.551-21.333-21.333-21.333h-42.667v-21.333
		h42.667v10.667h21.333v-10.667C298.667,254.885,289.115,245.333,277.333,245.333z"/>
	<path style="fill:#2170A6;" d="M53.333,149.333V192h21.333v-32h32v-21.333H64C58.109,138.667,53.333,143.442,53.333,149.333z"/>
	<path style="fill:#2170A6;" d="M437.333,437.333h-32v21.333H448c5.891,0,10.667-4.776,10.667-10.667v-42.667h-21.333V437.333z"/>
</g>
<g>
</g>
<g>
</g>
<g>
</g>
<g>
</g>
<g>
</g>
<g>
</g>
<g>
</g>
<g>
</g>
<g>
</g>
<g>
</g>
<g>
</g>
<g>
</g>
<g>
</g>
<g>
</g>
<g>
</g>
</svg>
