<?xml version="1.0" encoding="iso-8859-1"?>
<!-- Generator: Adobe Illustrator 19.0.0, SVG Export Plug-In . SVG Version: 6.00 Build 0)  -->
<svg version="1.1" id="Capa_1" xmlns="http://www.w3.org/2000/svg" xmlns:xlink="http://www.w3.org/1999/xlink" x="0px" y="0px"
	 viewBox="0 0 512 512" style="enable-background:new 0 0 512 512;" xml:space="preserve">
<g>
	<path style="fill:#FFFFFF;" d="M405.333,416v64c-0.035,11.768-9.566,21.298-21.333,21.333H128
		c-11.767-0.035-21.298-9.566-21.333-21.333v-64H405.333z"/>
	<path style="fill:#FFFFFF;" d="M405.333,32v64H106.667V32c0.035-11.767,9.566-21.298,21.333-21.333h256
		C395.768,10.702,405.298,20.233,405.333,32z"/>
</g>
<path style="fill:#87D2F3;" d="M405.333,96v320h-32H138.667h-32V96h32h234.667H405.333z"/>
<g>
	<path style="fill:#FFFFFF;" d="M309.333,416H160v-74.667c0-23.564,19.103-42.667,42.667-42.667
		c16.094,0.254,29.796-11.654,31.787-27.627c13.139,8.391,29.954,8.391,43.093,0c1.991,15.972,15.693,27.881,31.787,27.627
		c23.564,0,42.667,19.103,42.667,42.667V416H309.333z"/>
	<path style="fill:#FFFFFF;" d="M277.547,271.04c-13.139,8.391-29.954,8.391-43.093,0c-18.667-11.307-31.787-37.333-31.787-68.693
		v-21.013c0,0,10.667-42.667,53.333-42.667s53.333,42.667,53.333,42.667v21.013C309.333,233.707,296.213,259.733,277.547,271.04z"/>
</g>
<g>
	<path style="fill:#2170A6;" d="M394.667,480c0,5.891-4.776,10.667-10.667,10.667H128c-5.891,0-10.667-4.776-10.667-10.667v-32H96
		v32c0,17.673,14.327,32,32,32h256c17.673,0,32-14.327,32-32v-32h-21.333V480z"/>
	<path style="fill:#2170A6;" d="M384,0H128c-17.673,0-32,14.327-32,32v352h21.333V32c0-5.891,4.776-10.667,10.667-10.667h256
		c5.891,0,10.667,4.776,10.667,10.667v352H416V32C416,14.327,401.673,0,384,0z"/>
	<path style="fill:#2170A6;" d="M138.667,85.333h234.667v21.333H138.667V85.333z"/>
	<path style="fill:#2170A6;" d="M170.667,42.667h128V64h-128V42.667z"/>
	<path style="fill:#2170A6;" d="M320,42.667h21.333V64H320V42.667z"/>
	<path style="fill:#2170A6;" d="M245.333,448h21.333v21.333h-21.333V448z"/>
	<path style="fill:#2170A6;" d="M106.667,426.667h298.667v-21.333h-42.667v-64c0-29.422-23.826-53.286-53.248-53.333
		c-8.564,0.254-16.448-4.64-20.021-12.427c20.618-18.619,31.841-45.474,30.603-73.227v-21.013c0-0.874-0.108-1.744-0.32-2.592
		c-8.066-35.169-43.115-57.141-78.285-49.075c-24.413,5.599-43.476,24.662-49.075,49.075c-0.212,0.848-0.32,1.718-0.32,2.592v21.013
		c-1.237,27.745,9.977,54.594,30.581,73.216c-3.555,7.754-11.387,12.646-19.915,12.437c-29.441,0.035-53.298,23.893-53.333,53.333
		v64h-42.667L106.667,426.667z M213.333,202.347v-19.509c5.766-23.564,29.542-37.993,53.107-32.227
		c15.911,3.893,28.334,16.316,32.227,32.227v19.52c0,26.379-10.453,49.76-26.667,59.573h-0.053c-9.736,6.3-22.264,6.3-32,0
		C223.787,252.107,213.333,228.725,213.333,202.347z M170.667,341.333c0-17.673,14.327-32,32-32
		c16.28,0.045,31.193-9.098,38.539-23.627c9.61,3.043,19.926,3.043,29.536,0c7.362,14.539,22.295,23.682,38.592,23.627
		c17.673,0,32,14.327,32,32v64H320V352h-21.333v53.333h-85.333V352H192v53.333h-21.333V341.333z"/>
</g>
<g>
</g>
<g>
</g>
<g>
</g>
<g>
</g>
<g>
</g>
<g>
</g>
<g>
</g>
<g>
</g>
<g>
</g>
<g>
</g>
<g>
</g>
<g>
</g>
<g>
</g>
<g>
</g>
<g>
</g>
</svg>
