<?xml version="1.0" encoding="iso-8859-1"?>
<!-- Generator: Adobe Illustrator 19.0.0, SVG Export Plug-In . SVG Version: 6.00 Build 0)  -->
<svg version="1.1" id="Capa_1" xmlns="http://www.w3.org/2000/svg" xmlns:xlink="http://www.w3.org/1999/xlink" x="0px" y="0px"
	 viewBox="0 0 512.005 512.005" style="enable-background:new 0 0 512.005 512.005;" xml:space="preserve">
<path style="fill:#F2F2F2;" d="M309.336,245.338v32H202.669v-32v-32h106.667V245.338z"/>
<g>
	<path style="fill:#FFFFFF;" d="M149.336,10.671h213.333c5.766-0.125,10.542,4.448,10.667,10.214c0.003,0.151,0.003,0.302,0,0.453
		v21.333H138.669V21.338c-0.125-5.766,4.448-10.542,10.214-10.667C149.034,10.668,149.185,10.668,149.336,10.671z"/>
	<path style="fill:#FFFFFF;" d="M480.002,277.338v202.667c-0.035,11.767-9.566,21.298-21.333,21.333H53.336
		c-11.767-0.035-21.298-9.566-21.333-21.333V245.338h170.667v32h106.667v-32h170.667V277.338z"/>
</g>
<path style="fill:#87D2F3;" d="M501.336,117.338v106.667c-0.035,11.767-9.566,21.298-21.333,21.333H309.336v-32H202.669v32H32.002
	c-11.767-0.035-21.298-9.566-21.333-21.333V117.338c0.035-11.767,9.566-21.298,21.333-21.333h448
	C491.77,96.04,501.301,105.571,501.336,117.338z"/>
<circle style="fill:#FFFFFF;" cx="256.002" cy="266.671" r="128"/>
<path style="fill:#87D2F3;" d="M277.336,480.005v21.333h-42.667v-21.333c0.035-11.768,9.566-21.298,21.333-21.333
	C267.748,458.759,277.249,468.259,277.336,480.005z"/>
<g>
	<path style="fill:#2170A6;" d="M480.002,85.338H341.336v-32h32c5.891,0,10.667-4.776,10.667-10.667V21.338
		c0.244-11.538-8.911-21.089-20.449-21.333c-0.295-0.006-0.589-0.006-0.884,0H149.336c-11.538-0.244-21.089,8.911-21.333,20.449
		c-0.006,0.295-0.006,0.589,0,0.884v21.333c0,5.891,4.776,10.667,10.667,10.667h32v32H32.002c-17.673,0-32,14.327-32,32v106.667
		c0,17.673,14.327,32,32,32h53.333v-21.333H32.002c-5.891,0-10.667-4.776-10.667-10.667V117.338c0-5.891,4.776-10.667,10.667-10.667
		h448c5.891,0,10.667,4.776,10.667,10.667v106.667c0,5.891-4.776,10.667-10.667,10.667h-53.333v21.333h53.333
		c17.673,0,32-14.327,32-32V117.338C512.002,99.665,497.676,85.338,480.002,85.338z M149.336,21.338l213.28-0.597
		c0.042,0.196,0.06,0.397,0.053,0.597v10.667H149.336L149.336,21.338z M192.002,53.338h128v32h-128V53.338z"/>
	<path style="fill:#2170A6;" d="M469.336,480.005c0,5.891-4.776,10.667-10.667,10.667H288.002v-10.667
		c-0.028-13.526-8.574-25.568-21.333-30.059v-45.152c76.357-5.891,133.48-72.566,127.589-148.922s-72.566-133.48-148.922-127.589
		c-76.357,5.891-133.48,72.566-127.589,148.922c5.259,68.168,59.421,122.33,127.589,127.589v45.173
		c-12.74,4.504-21.277,16.525-21.333,30.037v10.667H53.336c-5.891,0-10.667-4.776-10.667-10.667V277.338H21.336v202.667
		c0,17.673,14.327,32,32,32h405.333c17.673,0,32-14.327,32-32V277.338h-21.333V480.005z M138.669,266.671
		c0-64.801,52.532-117.333,117.333-117.333s117.333,52.532,117.333,117.333s-52.532,117.333-117.333,117.333
		C191.233,383.928,138.745,331.441,138.669,266.671z M245.336,480.005c0-5.891,4.776-10.667,10.667-10.667
		c2.879-0.006,5.631,1.18,7.605,3.275c1.982,1.946,3.087,4.615,3.061,7.392v10.667h-21.333V480.005z"/>
	<path style="fill:#2170A6;" d="M266.669,341.338v-21.333h10.667c11.782,0,21.333-9.551,21.333-21.333v-21.333
		c0-11.782-9.551-21.333-21.333-21.333h-42.667v-21.333h42.667v10.667h21.333v-10.667c0-11.782-9.551-21.333-21.333-21.333h-10.667
		v-21.333h-21.333v21.333h-10.667c-11.782,0-21.333,9.551-21.333,21.333v21.333c0,11.782,9.551,21.333,21.333,21.333h42.667v21.333
		h-42.667v-10.667h-21.333v10.667c0,11.782,9.551,21.333,21.333,21.333h10.667v21.333H266.669z"/>
	<path style="fill:#2170A6;" d="M64.002,426.671v32c0,5.891,4.776,10.667,10.667,10.667h32v-21.333H85.336v-21.333H64.002z"/>
</g>
<g>
</g>
<g>
</g>
<g>
</g>
<g>
</g>
<g>
</g>
<g>
</g>
<g>
</g>
<g>
</g>
<g>
</g>
<g>
</g>
<g>
</g>
<g>
</g>
<g>
</g>
<g>
</g>
<g>
</g>
</svg>
